<mxfile host="Electron" modified="2024-06-09T17:34:16.354Z" agent="Mozilla/5.0 (Windows NT 10.0; Win64; x64) AppleWebKit/537.36 (KHTML, like Gecko) draw.io/24.5.1 Chrome/124.0.6367.207 Electron/30.0.6 Safari/537.36" etag="wlE6vSEVOsHL0FLl2q4F" version="24.5.1" type="device">
  <diagram name="Página-1" id="N_XMOAclhd_N4I7GmVK0">
    <mxGraphModel dx="1420" dy="830" grid="1" gridSize="10" guides="1" tooltips="1" connect="1" arrows="1" fold="1" page="1" pageScale="1" pageWidth="827" pageHeight="1169" background="#CCE5FF" math="0" shadow="0">
      <root>
        <mxCell id="0" />
        <mxCell id="1" parent="0" />
        <mxCell id="tAWPGi2jO7DJqhwMYPtC-1" value="&lt;b style=&quot;font-size: 16px;&quot;&gt;&lt;font style=&quot;font-size: 16px;&quot; color=&quot;#000000&quot; face=&quot;Comic Sans MS&quot;&gt;3 Leer 10 números y guardarlos en un vector. Determinar e informar cuál es el valor máximo y su posición dentro del vector.&lt;/font&gt;&lt;/b&gt;" style="text;whiteSpace=wrap;html=1;fontFamily=Architects Daughter;fontSource=https%3A%2F%2Ffonts.googleapis.com%2Fcss%3Ffamily%3DArchitects%2BDaughter;" parent="1" vertex="1">
          <mxGeometry x="100" y="20" width="570" height="60" as="geometry" />
        </mxCell>
        <mxCell id="TJ2M6cgu7bd1UGa0eYtn-57" value="" style="group;aspect=fixed;" parent="1" vertex="1" connectable="0">
          <mxGeometry x="91.36000000000001" y="120" width="439.28" height="1130" as="geometry" />
        </mxCell>
        <mxCell id="tAWPGi2jO7DJqhwMYPtC-8" value="" style="group;aspect=fixed;" parent="TJ2M6cgu7bd1UGa0eYtn-57" vertex="1" connectable="0">
          <mxGeometry x="238.64" width="50" height="50" as="geometry" />
        </mxCell>
        <mxCell id="tAWPGi2jO7DJqhwMYPtC-2" value="" style="strokeWidth=2;html=1;shape=mxgraph.flowchart.start_2;whiteSpace=wrap;rounded=0;labelBackgroundColor=none;strokeColor=#000000;align=center;verticalAlign=middle;fontFamily=Helvetica;fontSize=12;fontColor=default;fillColor=#d5e8d4;aspect=fixed;" parent="tAWPGi2jO7DJqhwMYPtC-8" vertex="1">
          <mxGeometry width="50" height="50" as="geometry" />
        </mxCell>
        <mxCell id="tAWPGi2jO7DJqhwMYPtC-6" value="&lt;b&gt;&lt;font color=&quot;#000000&quot; style=&quot;font-size: 19px;&quot; face=&quot;Comic Sans MS&quot;&gt;I&lt;/font&gt;&lt;/b&gt;" style="text;strokeColor=none;align=center;fillColor=none;html=1;verticalAlign=middle;whiteSpace=wrap;rounded=0;fontFamily=Architects Daughter;fontSource=https%3A%2F%2Ffonts.googleapis.com%2Fcss%3Ffamily%3DArchitects%2BDaughter;aspect=fixed;" parent="tAWPGi2jO7DJqhwMYPtC-8" vertex="1">
          <mxGeometry x="5" y="10" width="40" height="30" as="geometry" />
        </mxCell>
        <mxCell id="tAWPGi2jO7DJqhwMYPtC-9" value="" style="group;aspect=fixed;" parent="TJ2M6cgu7bd1UGa0eYtn-57" vertex="1" connectable="0">
          <mxGeometry x="238.64" y="1080" width="50" height="50" as="geometry" />
        </mxCell>
        <mxCell id="tAWPGi2jO7DJqhwMYPtC-3" value="" style="strokeWidth=2;html=1;shape=mxgraph.flowchart.start_2;whiteSpace=wrap;rounded=0;labelBackgroundColor=none;strokeColor=#000000;align=center;verticalAlign=middle;fontFamily=Helvetica;fontSize=12;fontColor=default;fillColor=#d5e8d4;" parent="tAWPGi2jO7DJqhwMYPtC-9" vertex="1">
          <mxGeometry width="50" height="50" as="geometry" />
        </mxCell>
        <mxCell id="tAWPGi2jO7DJqhwMYPtC-7" value="&lt;b&gt;&lt;font color=&quot;#000000&quot; style=&quot;font-size: 19px;&quot; face=&quot;Comic Sans MS&quot;&gt;F&lt;/font&gt;&lt;/b&gt;" style="text;strokeColor=none;align=center;fillColor=none;html=1;verticalAlign=middle;whiteSpace=wrap;rounded=0;fontFamily=Architects Daughter;fontSource=https://fonts.googleapis.com/css?family=Architects+Daughter;" parent="tAWPGi2jO7DJqhwMYPtC-9" vertex="1">
          <mxGeometry x="5" y="10" width="40" height="30" as="geometry" />
        </mxCell>
        <mxCell id="tAWPGi2jO7DJqhwMYPtC-13" value="" style="group;aspect=fixed;" parent="TJ2M6cgu7bd1UGa0eYtn-57" vertex="1" connectable="0">
          <mxGeometry x="168.64" y="70" width="190" height="50" as="geometry" />
        </mxCell>
        <mxCell id="tAWPGi2jO7DJqhwMYPtC-4" value="" style="rounded=0;whiteSpace=wrap;html=1;labelBackgroundColor=none;strokeColor=#0f100e;strokeWidth=2;align=center;verticalAlign=middle;fontFamily=Helvetica;fontSize=12;fontColor=default;fillColor=#d5e8d4;" parent="tAWPGi2jO7DJqhwMYPtC-13" vertex="1">
          <mxGeometry x="30" y="5" width="130" height="40" as="geometry" />
        </mxCell>
        <mxCell id="tAWPGi2jO7DJqhwMYPtC-10" value="&lt;font color=&quot;#000000&quot; face=&quot;Comic Sans MS&quot;&gt;&lt;span style=&quot;font-size: 15px;&quot;&gt;&lt;b&gt;int vector[10]&lt;/b&gt;&lt;/span&gt;&lt;/font&gt;" style="text;strokeColor=none;align=center;fillColor=none;html=1;verticalAlign=middle;whiteSpace=wrap;rounded=0;fontFamily=Architects Daughter;fontSource=https%3A%2F%2Ffonts.googleapis.com%2Fcss%3Ffamily%3DArchitects%2BDaughter;" parent="tAWPGi2jO7DJqhwMYPtC-13" vertex="1">
          <mxGeometry width="190" height="50" as="geometry" />
        </mxCell>
        <mxCell id="TJ2M6cgu7bd1UGa0eYtn-53" value="" style="line;strokeWidth=2;direction=south;html=1;hachureGap=4;fontFamily=Architects Daughter;fontSource=https://fonts.googleapis.com/css?family=Architects+Daughter;strokeColor=#000000;" parent="tAWPGi2jO7DJqhwMYPtC-13" vertex="1">
          <mxGeometry x="90" y="-20" width="10" height="30" as="geometry" />
        </mxCell>
        <mxCell id="tAWPGi2jO7DJqhwMYPtC-14" value="" style="group;aspect=fixed;" parent="TJ2M6cgu7bd1UGa0eYtn-57" vertex="1" connectable="0">
          <mxGeometry x="101.13999999999999" y="130" width="325" height="70" as="geometry" />
        </mxCell>
        <mxCell id="tAWPGi2jO7DJqhwMYPtC-11" value="" style="rounded=0;whiteSpace=wrap;html=1;labelBackgroundColor=none;strokeColor=#0f100e;strokeWidth=2;align=center;verticalAlign=middle;fontFamily=Helvetica;fontSize=12;fontColor=default;fillColor=#d5e8d4;" parent="tAWPGi2jO7DJqhwMYPtC-14" vertex="1">
          <mxGeometry y="15" width="325" height="40" as="geometry" />
        </mxCell>
        <mxCell id="tAWPGi2jO7DJqhwMYPtC-12" value="&lt;font face=&quot;Comic Sans MS&quot; color=&quot;#000000&quot;&gt;&lt;span style=&quot;font-size: 15px;&quot;&gt;&lt;b&gt;int num, x = 0, maximo = 0, posicion = 0&lt;/b&gt;&lt;/span&gt;&lt;/font&gt;" style="text;strokeColor=none;align=center;fillColor=none;html=1;verticalAlign=middle;whiteSpace=wrap;rounded=0;fontFamily=Architects Daughter;fontSource=https://fonts.googleapis.com/css?family=Architects+Daughter;" parent="tAWPGi2jO7DJqhwMYPtC-14" vertex="1">
          <mxGeometry x="3" width="320" height="70" as="geometry" />
        </mxCell>
        <mxCell id="TJ2M6cgu7bd1UGa0eYtn-52" value="" style="line;strokeWidth=2;direction=south;html=1;hachureGap=4;fontFamily=Architects Daughter;fontSource=https://fonts.googleapis.com/css?family=Architects+Daughter;strokeColor=#000000;" parent="tAWPGi2jO7DJqhwMYPtC-14" vertex="1">
          <mxGeometry x="157.5" y="-17" width="10" height="36" as="geometry" />
        </mxCell>
        <mxCell id="TJ2M6cgu7bd1UGa0eYtn-1" value="" style="group;aspect=fixed;" parent="TJ2M6cgu7bd1UGa0eYtn-57" vertex="1" connectable="0">
          <mxGeometry x="58.639999999999986" y="230" width="322" height="250" as="geometry" />
        </mxCell>
        <mxCell id="TJ2M6cgu7bd1UGa0eYtn-2" value="" style="whiteSpace=wrap;html=1;aspect=fixed;rounded=0;labelBackgroundColor=none;strokeColor=#000000;strokeWidth=2;align=center;verticalAlign=middle;fontFamily=Helvetica;fontSize=12;fontColor=default;fillColor=#d5e8d4;" parent="TJ2M6cgu7bd1UGa0eYtn-1" vertex="1">
          <mxGeometry x="72" width="250" height="250" as="geometry" />
        </mxCell>
        <mxCell id="TJ2M6cgu7bd1UGa0eYtn-3" value="" style="group;aspect=fixed;" parent="TJ2M6cgu7bd1UGa0eYtn-1" vertex="1" connectable="0">
          <mxGeometry y="22" width="149" height="140" as="geometry" />
        </mxCell>
        <mxCell id="TJ2M6cgu7bd1UGa0eYtn-4" value="" style="ellipse;whiteSpace=wrap;html=1;aspect=fixed;rounded=0;labelBackgroundColor=none;strokeColor=#0F140C;strokeWidth=3;align=center;verticalAlign=middle;fontFamily=Helvetica;fontSize=12;fontColor=default;fillColor=#d5e8d4;container=0;" parent="TJ2M6cgu7bd1UGa0eYtn-3" vertex="1">
          <mxGeometry x="5" width="140" height="140" as="geometry" />
        </mxCell>
        <mxCell id="TJ2M6cgu7bd1UGa0eYtn-5" value="" style="endArrow=none;html=1;rounded=0;strokeColor=#0F140C;fontFamily=Helvetica;fontSize=12;fontColor=default;fillColor=#B2C9AB;strokeWidth=2;" parent="TJ2M6cgu7bd1UGa0eYtn-3" edge="1">
          <mxGeometry width="50" height="50" relative="1" as="geometry">
            <mxPoint x="139.4" y="39.19999999999999" as="sourcePoint" />
            <mxPoint x="10.600000000000001" y="39.19999999999999" as="targetPoint" />
          </mxGeometry>
        </mxCell>
        <mxCell id="TJ2M6cgu7bd1UGa0eYtn-6" value="" style="endArrow=none;html=1;rounded=0;strokeColor=#0F140C;fontFamily=Helvetica;fontSize=12;fontColor=default;fillColor=#B2C9AB;exitX=0.264;exitY=0.952;exitDx=0;exitDy=0;exitPerimeter=0;strokeWidth=2;" parent="TJ2M6cgu7bd1UGa0eYtn-3" source="TJ2M6cgu7bd1UGa0eYtn-4" edge="1">
          <mxGeometry width="50" height="50" relative="1" as="geometry">
            <mxPoint x="38.6" y="84" as="sourcePoint" />
            <mxPoint x="44.2" y="39.19999999999999" as="targetPoint" />
          </mxGeometry>
        </mxCell>
        <mxCell id="TJ2M6cgu7bd1UGa0eYtn-7" value="" style="endArrow=none;html=1;rounded=0;strokeColor=#0F140C;fontFamily=Helvetica;fontSize=12;fontColor=default;fillColor=#B2C9AB;exitX=0.728;exitY=0.948;exitDx=0;exitDy=0;exitPerimeter=0;strokeWidth=2;" parent="TJ2M6cgu7bd1UGa0eYtn-3" source="TJ2M6cgu7bd1UGa0eYtn-4" edge="1">
          <mxGeometry width="50" height="50" relative="1" as="geometry">
            <mxPoint x="89.00000000000001" y="95.20000000000005" as="sourcePoint" />
            <mxPoint x="106.92000000000002" y="39.19999999999999" as="targetPoint" />
          </mxGeometry>
        </mxCell>
        <mxCell id="TJ2M6cgu7bd1UGa0eYtn-8" value="&lt;font face=&quot;Comic Sans MS&quot; color=&quot;#000000&quot;&gt;&lt;span style=&quot;font-size: 13px;&quot;&gt;&lt;b&gt;x&lt;/b&gt;&lt;/span&gt;&lt;/font&gt;" style="text;strokeColor=none;align=center;fillColor=none;html=1;verticalAlign=middle;whiteSpace=wrap;rounded=0;fontFamily=Architects Daughter;fontSource=https://fonts.googleapis.com/css?family=Architects+Daughter;container=0;" parent="TJ2M6cgu7bd1UGa0eYtn-3" vertex="1">
          <mxGeometry x="48" y="10" width="50" height="30" as="geometry" />
        </mxCell>
        <mxCell id="TJ2M6cgu7bd1UGa0eYtn-9" value="&lt;font color=&quot;#000000&quot; size=&quot;1&quot; face=&quot;Comic Sans MS&quot;&gt;&lt;b style=&quot;font-size: 13px;&quot;&gt;x++&lt;/b&gt;&lt;/font&gt;" style="text;strokeColor=none;align=center;fillColor=none;html=1;verticalAlign=middle;whiteSpace=wrap;rounded=0;fontFamily=Architects Daughter;fontSource=https://fonts.googleapis.com/css?family=Architects+Daughter;container=0;" parent="TJ2M6cgu7bd1UGa0eYtn-3" vertex="1">
          <mxGeometry x="99" y="63" width="50" height="30" as="geometry" />
        </mxCell>
        <mxCell id="TJ2M6cgu7bd1UGa0eYtn-10" value="&lt;font color=&quot;#000000&quot; size=&quot;1&quot; face=&quot;Comic Sans MS&quot;&gt;&lt;b style=&quot;font-size: 13px;&quot;&gt;x &amp;lt; 10&lt;/b&gt;&lt;/font&gt;" style="text;strokeColor=none;align=center;fillColor=none;html=1;verticalAlign=middle;whiteSpace=wrap;rounded=0;fontFamily=Architects Daughter;fontSource=https://fonts.googleapis.com/css?family=Architects+Daughter;container=0;" parent="TJ2M6cgu7bd1UGa0eYtn-3" vertex="1">
          <mxGeometry x="44" y="63" width="60" height="30" as="geometry" />
        </mxCell>
        <mxCell id="TJ2M6cgu7bd1UGa0eYtn-11" value="&lt;font color=&quot;#000000&quot; size=&quot;1&quot; face=&quot;Comic Sans MS&quot;&gt;&lt;b style=&quot;font-size: 13px;&quot;&gt;x = 0&lt;/b&gt;&lt;/font&gt;" style="text;strokeColor=none;align=center;fillColor=none;html=1;verticalAlign=middle;whiteSpace=wrap;rounded=0;fontFamily=Architects Daughter;fontSource=https://fonts.googleapis.com/css?family=Architects+Daughter;container=0;" parent="TJ2M6cgu7bd1UGa0eYtn-3" vertex="1">
          <mxGeometry y="63" width="50" height="30" as="geometry" />
        </mxCell>
        <mxCell id="TJ2M6cgu7bd1UGa0eYtn-12" value="" style="group;aspect=fixed;" parent="TJ2M6cgu7bd1UGa0eYtn-1" vertex="1" connectable="0">
          <mxGeometry x="167" y="67" width="120" height="40" as="geometry" />
        </mxCell>
        <mxCell id="TJ2M6cgu7bd1UGa0eYtn-13" value="" style="shape=trapezoid;perimeter=trapezoidPerimeter;whiteSpace=wrap;html=1;fixedSize=1;rounded=0;labelBackgroundColor=none;strokeColor=#121211;strokeWidth=2;align=center;verticalAlign=middle;fontFamily=Helvetica;fontSize=12;fontColor=default;fillColor=#d5e8d4;direction=west;container=0;" parent="TJ2M6cgu7bd1UGa0eYtn-12" vertex="1">
          <mxGeometry width="120" height="40" as="geometry">
            <mxRectangle x="-1020" y="-650" width="50" height="40" as="alternateBounds" />
          </mxGeometry>
        </mxCell>
        <mxCell id="TJ2M6cgu7bd1UGa0eYtn-14" value="&lt;font size=&quot;1&quot; face=&quot;Comic Sans MS&quot; color=&quot;#000000&quot;&gt;&lt;b style=&quot;font-size: 16px;&quot;&gt;num&lt;/b&gt;&lt;/font&gt;" style="text;strokeColor=none;align=center;fillColor=none;html=1;verticalAlign=middle;whiteSpace=wrap;rounded=0;fontFamily=Architects Daughter;fontSource=https://fonts.googleapis.com/css?family=Architects+Daughter;container=0;" parent="TJ2M6cgu7bd1UGa0eYtn-12" vertex="1">
          <mxGeometry x="20" y="5" width="80" height="30" as="geometry" />
        </mxCell>
        <mxCell id="TJ2M6cgu7bd1UGa0eYtn-15" value="" style="group;aspect=fixed;" parent="TJ2M6cgu7bd1UGa0eYtn-1" vertex="1" connectable="0">
          <mxGeometry x="137" y="138" width="180" height="40" as="geometry" />
        </mxCell>
        <mxCell id="TJ2M6cgu7bd1UGa0eYtn-16" value="" style="rounded=0;whiteSpace=wrap;html=1;labelBackgroundColor=none;strokeColor=#0f100e;strokeWidth=2;align=center;verticalAlign=middle;fontFamily=Helvetica;fontSize=12;fontColor=default;fillColor=#d5e8d4;" parent="TJ2M6cgu7bd1UGa0eYtn-15" vertex="1">
          <mxGeometry x="9" width="160" height="40" as="geometry" />
        </mxCell>
        <mxCell id="TJ2M6cgu7bd1UGa0eYtn-17" value="&lt;font size=&quot;1&quot; face=&quot;Comic Sans MS&quot; color=&quot;#000000&quot;&gt;&lt;b style=&quot;font-size: 16px;&quot;&gt;vector[x] = num&lt;/b&gt;&lt;/font&gt;" style="text;strokeColor=none;align=center;fillColor=none;html=1;verticalAlign=middle;whiteSpace=wrap;rounded=0;fontFamily=Architects Daughter;fontSource=https://fonts.googleapis.com/css?family=Architects+Daughter;" parent="TJ2M6cgu7bd1UGa0eYtn-15" vertex="1">
          <mxGeometry y="6" width="180" height="30" as="geometry" />
        </mxCell>
        <mxCell id="TJ2M6cgu7bd1UGa0eYtn-58" value="" style="line;strokeWidth=2;direction=south;html=1;hachureGap=4;fontFamily=Architects Daughter;fontSource=https://fonts.googleapis.com/css?family=Architects+Daughter;strokeColor=#000000;" parent="TJ2M6cgu7bd1UGa0eYtn-1" vertex="1">
          <mxGeometry x="219" y="108" width="10" height="30" as="geometry" />
        </mxCell>
        <mxCell id="TJ2M6cgu7bd1UGa0eYtn-23" value="" style="group;aspect=fixed;" parent="TJ2M6cgu7bd1UGa0eYtn-57" vertex="1" connectable="0">
          <mxGeometry x="168.64" y="520" width="190" height="51" as="geometry" />
        </mxCell>
        <mxCell id="TJ2M6cgu7bd1UGa0eYtn-21" value="" style="rounded=0;whiteSpace=wrap;html=1;labelBackgroundColor=none;strokeColor=#0f100e;strokeWidth=2;align=center;verticalAlign=middle;fontFamily=Helvetica;fontSize=12;fontColor=default;fillColor=#d5e8d4;container=0;" parent="TJ2M6cgu7bd1UGa0eYtn-23" vertex="1">
          <mxGeometry x="4.25" width="183.75" height="48" as="geometry" />
        </mxCell>
        <mxCell id="TJ2M6cgu7bd1UGa0eYtn-22" value="&lt;font color=&quot;#000000&quot; face=&quot;Comic Sans MS&quot;&gt;&lt;span style=&quot;font-size: 15px;&quot;&gt;&lt;b&gt;maximo = vector[0]&lt;/b&gt;&lt;/span&gt;&lt;/font&gt;&lt;div&gt;&lt;font color=&quot;#000000&quot; face=&quot;Comic Sans MS&quot;&gt;&lt;span style=&quot;font-size: 15px;&quot;&gt;&lt;b&gt;posicion = 1&lt;/b&gt;&lt;/span&gt;&lt;/font&gt;&lt;/div&gt;" style="text;strokeColor=none;align=center;fillColor=none;html=1;verticalAlign=middle;whiteSpace=wrap;rounded=0;fontFamily=Architects Daughter;fontSource=https://fonts.googleapis.com/css?family=Architects+Daughter;container=0;" parent="TJ2M6cgu7bd1UGa0eYtn-23" vertex="1">
          <mxGeometry y="1" width="190" height="50" as="geometry" />
        </mxCell>
        <mxCell id="TJ2M6cgu7bd1UGa0eYtn-24" value="" style="group;aspect=fixed;" parent="TJ2M6cgu7bd1UGa0eYtn-57" vertex="1" connectable="0">
          <mxGeometry y="610" width="439.28" height="350" as="geometry" />
        </mxCell>
        <mxCell id="TJ2M6cgu7bd1UGa0eYtn-25" value="" style="whiteSpace=wrap;html=1;aspect=fixed;rounded=0;labelBackgroundColor=none;strokeColor=#000000;strokeWidth=2;align=center;verticalAlign=middle;fontFamily=Helvetica;fontSize=12;fontColor=default;fillColor=#d5e8d4;" parent="TJ2M6cgu7bd1UGa0eYtn-24" vertex="1">
          <mxGeometry x="80" width="350" height="350" as="geometry" />
        </mxCell>
        <mxCell id="TJ2M6cgu7bd1UGa0eYtn-26" value="" style="group;aspect=fixed;" parent="TJ2M6cgu7bd1UGa0eYtn-24" vertex="1" connectable="0">
          <mxGeometry x="-9.36" y="27.28" width="184.76" height="173.6" as="geometry" />
        </mxCell>
        <mxCell id="TJ2M6cgu7bd1UGa0eYtn-27" value="" style="ellipse;whiteSpace=wrap;html=1;aspect=fixed;rounded=0;labelBackgroundColor=none;strokeColor=#0F140C;strokeWidth=3;align=center;verticalAlign=middle;fontFamily=Helvetica;fontSize=12;fontColor=default;fillColor=#d5e8d4;container=0;" parent="TJ2M6cgu7bd1UGa0eYtn-26" vertex="1">
          <mxGeometry x="6.2" width="173.6" height="173.6" as="geometry" />
        </mxCell>
        <mxCell id="TJ2M6cgu7bd1UGa0eYtn-28" value="" style="endArrow=none;html=1;rounded=0;strokeColor=#0F140C;fontFamily=Helvetica;fontSize=12;fontColor=default;fillColor=#B2C9AB;strokeWidth=2;" parent="TJ2M6cgu7bd1UGa0eYtn-26" edge="1">
          <mxGeometry width="50" height="50" relative="1" as="geometry">
            <mxPoint x="172.856" y="48.60799999999998" as="sourcePoint" />
            <mxPoint x="13.144000000000002" y="48.60799999999998" as="targetPoint" />
          </mxGeometry>
        </mxCell>
        <mxCell id="TJ2M6cgu7bd1UGa0eYtn-29" value="" style="endArrow=none;html=1;rounded=0;strokeColor=#0F140C;fontFamily=Helvetica;fontSize=12;fontColor=default;fillColor=#B2C9AB;exitX=0.264;exitY=0.952;exitDx=0;exitDy=0;exitPerimeter=0;strokeWidth=2;" parent="TJ2M6cgu7bd1UGa0eYtn-26" source="TJ2M6cgu7bd1UGa0eYtn-27" edge="1">
          <mxGeometry width="50" height="50" relative="1" as="geometry">
            <mxPoint x="47.864000000000004" y="104.16" as="sourcePoint" />
            <mxPoint x="54.808" y="48.60799999999998" as="targetPoint" />
          </mxGeometry>
        </mxCell>
        <mxCell id="TJ2M6cgu7bd1UGa0eYtn-30" value="" style="endArrow=none;html=1;rounded=0;strokeColor=#0F140C;fontFamily=Helvetica;fontSize=12;fontColor=default;fillColor=#B2C9AB;exitX=0.728;exitY=0.948;exitDx=0;exitDy=0;exitPerimeter=0;strokeWidth=2;" parent="TJ2M6cgu7bd1UGa0eYtn-26" source="TJ2M6cgu7bd1UGa0eYtn-27" edge="1">
          <mxGeometry width="50" height="50" relative="1" as="geometry">
            <mxPoint x="110.36000000000001" y="118.04800000000006" as="sourcePoint" />
            <mxPoint x="132.5808" y="48.60799999999998" as="targetPoint" />
          </mxGeometry>
        </mxCell>
        <mxCell id="TJ2M6cgu7bd1UGa0eYtn-31" value="&lt;font face=&quot;Comic Sans MS&quot; color=&quot;#000000&quot;&gt;&lt;span style=&quot;font-size: 13px;&quot;&gt;&lt;b&gt;x&lt;/b&gt;&lt;/span&gt;&lt;/font&gt;" style="text;strokeColor=none;align=center;fillColor=none;html=1;verticalAlign=middle;whiteSpace=wrap;rounded=0;fontFamily=Architects Daughter;fontSource=https://fonts.googleapis.com/css?family=Architects+Daughter;container=0;" parent="TJ2M6cgu7bd1UGa0eYtn-26" vertex="1">
          <mxGeometry x="59.519999999999996" y="12.4" width="62" height="37.2" as="geometry" />
        </mxCell>
        <mxCell id="TJ2M6cgu7bd1UGa0eYtn-32" value="&lt;font color=&quot;#000000&quot; size=&quot;1&quot; face=&quot;Comic Sans MS&quot;&gt;&lt;b style=&quot;font-size: 13px;&quot;&gt;x++&lt;/b&gt;&lt;/font&gt;" style="text;strokeColor=none;align=center;fillColor=none;html=1;verticalAlign=middle;whiteSpace=wrap;rounded=0;fontFamily=Architects Daughter;fontSource=https://fonts.googleapis.com/css?family=Architects+Daughter;container=0;" parent="TJ2M6cgu7bd1UGa0eYtn-26" vertex="1">
          <mxGeometry x="122.76" y="78.12" width="62" height="37.2" as="geometry" />
        </mxCell>
        <mxCell id="TJ2M6cgu7bd1UGa0eYtn-33" value="&lt;font color=&quot;#000000&quot; size=&quot;1&quot; face=&quot;Comic Sans MS&quot;&gt;&lt;b style=&quot;font-size: 13px;&quot;&gt;x &amp;lt; 10&lt;/b&gt;&lt;/font&gt;" style="text;strokeColor=none;align=center;fillColor=none;html=1;verticalAlign=middle;whiteSpace=wrap;rounded=0;fontFamily=Architects Daughter;fontSource=https://fonts.googleapis.com/css?family=Architects+Daughter;container=0;" parent="TJ2M6cgu7bd1UGa0eYtn-26" vertex="1">
          <mxGeometry x="54.56" y="78.12" width="74.4" height="37.2" as="geometry" />
        </mxCell>
        <mxCell id="TJ2M6cgu7bd1UGa0eYtn-34" value="&lt;font color=&quot;#000000&quot; size=&quot;1&quot; face=&quot;Comic Sans MS&quot;&gt;&lt;b style=&quot;font-size: 13px;&quot;&gt;x = 0&lt;/b&gt;&lt;/font&gt;" style="text;strokeColor=none;align=center;fillColor=none;html=1;verticalAlign=middle;whiteSpace=wrap;rounded=0;fontFamily=Architects Daughter;fontSource=https://fonts.googleapis.com/css?family=Architects+Daughter;container=0;" parent="TJ2M6cgu7bd1UGa0eYtn-26" vertex="1">
          <mxGeometry y="78.12" width="62" height="37.2" as="geometry" />
        </mxCell>
        <mxCell id="TJ2M6cgu7bd1UGa0eYtn-35" value="" style="group;aspect=fixed;" parent="TJ2M6cgu7bd1UGa0eYtn-24" vertex="1" connectable="0">
          <mxGeometry x="237.64" y="38" width="131" height="130" as="geometry" />
        </mxCell>
        <mxCell id="TJ2M6cgu7bd1UGa0eYtn-36" value="" style="rhombus;whiteSpace=wrap;html=1;rounded=0;labelBackgroundColor=none;strokeColor=#0F140C;strokeWidth=2;align=center;verticalAlign=middle;fontFamily=Helvetica;fontSize=12;fontColor=default;fillColor=#d5e8d4;" parent="TJ2M6cgu7bd1UGa0eYtn-35" vertex="1">
          <mxGeometry width="130" height="130" as="geometry" />
        </mxCell>
        <mxCell id="TJ2M6cgu7bd1UGa0eYtn-37" value="&lt;font size=&quot;1&quot; face=&quot;Comic Sans MS&quot; color=&quot;#000000&quot;&gt;&lt;b style=&quot;font-size: 16px;&quot;&gt;vector[x]&lt;/b&gt;&lt;/font&gt;&lt;div&gt;&lt;font face=&quot;Comic Sans MS&quot; color=&quot;#000000&quot;&gt;&lt;span style=&quot;font-size: 16px;&quot;&gt;&lt;b&gt;&amp;gt;&lt;/b&gt;&lt;/span&gt;&lt;/font&gt;&lt;/div&gt;&lt;div&gt;&lt;font size=&quot;1&quot; face=&quot;Comic Sans MS&quot; color=&quot;#000000&quot;&gt;&lt;b style=&quot;font-size: 16px;&quot;&gt;maximo&lt;/b&gt;&lt;/font&gt;&lt;/div&gt;" style="text;strokeColor=none;align=center;fillColor=none;html=1;verticalAlign=middle;whiteSpace=wrap;rounded=0;fontFamily=Architects Daughter;fontSource=https://fonts.googleapis.com/css?family=Architects+Daughter;" parent="TJ2M6cgu7bd1UGa0eYtn-35" vertex="1">
          <mxGeometry x="1" y="31" width="130" height="70" as="geometry" />
        </mxCell>
        <mxCell id="TJ2M6cgu7bd1UGa0eYtn-41" value="" style="line;strokeWidth=2;html=1;perimeter=backbonePerimeter;points=[];outlineConnect=0;hachureGap=4;fontFamily=Architects Daughter;fontSource=https://fonts.googleapis.com/css?family=Architects+Daughter;strokeColor=#000000;" parent="TJ2M6cgu7bd1UGa0eYtn-24" vertex="1">
          <mxGeometry x="210" y="98" width="27.64" height="10" as="geometry" />
        </mxCell>
        <mxCell id="TJ2M6cgu7bd1UGa0eYtn-42" value="" style="line;strokeWidth=2;html=1;perimeter=backbonePerimeter;points=[];outlineConnect=0;hachureGap=4;fontFamily=Architects Daughter;fontSource=https://fonts.googleapis.com/css?family=Architects+Daughter;strokeColor=#000000;" parent="TJ2M6cgu7bd1UGa0eYtn-24" vertex="1">
          <mxGeometry x="365.64" y="98" width="34.36" height="10" as="geometry" />
        </mxCell>
        <mxCell id="TJ2M6cgu7bd1UGa0eYtn-43" value="" style="line;strokeWidth=2;direction=south;html=1;hachureGap=4;fontFamily=Architects Daughter;fontSource=https://fonts.googleapis.com/css?family=Architects+Daughter;strokeColor=#000000;" parent="TJ2M6cgu7bd1UGa0eYtn-24" vertex="1">
          <mxGeometry x="207" y="103" width="10" height="87" as="geometry" />
        </mxCell>
        <mxCell id="TJ2M6cgu7bd1UGa0eYtn-44" value="" style="line;strokeWidth=2;direction=south;html=1;hachureGap=4;fontFamily=Architects Daughter;fontSource=https://fonts.googleapis.com/css?family=Architects+Daughter;strokeColor=#000000;" parent="TJ2M6cgu7bd1UGa0eYtn-24" vertex="1">
          <mxGeometry x="394" y="104" width="10" height="176" as="geometry" />
        </mxCell>
        <mxCell id="TJ2M6cgu7bd1UGa0eYtn-45" value="" style="line;strokeWidth=2;direction=south;html=1;hachureGap=4;fontFamily=Architects Daughter;fontSource=https://fonts.googleapis.com/css?family=Architects+Daughter;strokeColor=#000000;" parent="TJ2M6cgu7bd1UGa0eYtn-24" vertex="1">
          <mxGeometry x="210" y="250" width="10" height="30" as="geometry" />
        </mxCell>
        <mxCell id="TJ2M6cgu7bd1UGa0eYtn-46" value="" style="line;strokeWidth=2;html=1;perimeter=backbonePerimeter;points=[];outlineConnect=0;hachureGap=4;fontFamily=Architects Daughter;fontSource=https://fonts.googleapis.com/css?family=Architects+Daughter;strokeColor=#000000;" parent="TJ2M6cgu7bd1UGa0eYtn-24" vertex="1">
          <mxGeometry x="215" y="275" width="185" height="10" as="geometry" />
        </mxCell>
        <mxCell id="TJ2M6cgu7bd1UGa0eYtn-47" value="" style="group;" parent="TJ2M6cgu7bd1UGa0eYtn-24" vertex="1" connectable="0">
          <mxGeometry x="124.63999999999999" y="192" width="190" height="60" as="geometry" />
        </mxCell>
        <mxCell id="TJ2M6cgu7bd1UGa0eYtn-48" value="" style="rounded=0;whiteSpace=wrap;html=1;labelBackgroundColor=none;strokeColor=#0f100e;strokeWidth=2;align=center;verticalAlign=middle;fontFamily=Helvetica;fontSize=12;fontColor=default;fillColor=#d5e8d4;container=0;" parent="TJ2M6cgu7bd1UGa0eYtn-47" vertex="1">
          <mxGeometry x="4.249999999999999" width="183.74999999999997" height="56.47058823529411" as="geometry" />
        </mxCell>
        <mxCell id="TJ2M6cgu7bd1UGa0eYtn-49" value="&lt;font color=&quot;#000000&quot; face=&quot;Comic Sans MS&quot;&gt;&lt;span style=&quot;font-size: 15px;&quot;&gt;&lt;b&gt;maximo = vector[x]&lt;/b&gt;&lt;/span&gt;&lt;/font&gt;&lt;div&gt;&lt;font color=&quot;#000000&quot; face=&quot;Comic Sans MS&quot;&gt;&lt;span style=&quot;font-size: 15px;&quot;&gt;&lt;b&gt;posicion = x + 1&lt;/b&gt;&lt;/span&gt;&lt;/font&gt;&lt;/div&gt;" style="text;strokeColor=none;align=center;fillColor=none;html=1;verticalAlign=middle;whiteSpace=wrap;rounded=0;fontFamily=Architects Daughter;fontSource=https://fonts.googleapis.com/css?family=Architects+Daughter;container=0;" parent="TJ2M6cgu7bd1UGa0eYtn-47" vertex="1">
          <mxGeometry x="16" width="160" height="60" as="geometry" />
        </mxCell>
        <mxCell id="TJ2M6cgu7bd1UGa0eYtn-38" value="" style="group;aspect=fixed;" parent="TJ2M6cgu7bd1UGa0eYtn-57" vertex="1" connectable="0">
          <mxGeometry x="143.64" y="995" width="240" height="54" as="geometry" />
        </mxCell>
        <mxCell id="TJ2M6cgu7bd1UGa0eYtn-39" value="" style="shape=trapezoid;perimeter=trapezoidPerimeter;whiteSpace=wrap;html=1;fixedSize=1;rounded=0;labelBackgroundColor=none;strokeColor=#0F140C;strokeWidth=2;align=center;verticalAlign=middle;fontFamily=Helvetica;fontSize=12;fontColor=default;fillColor=#d5e8d4;" parent="TJ2M6cgu7bd1UGa0eYtn-38" vertex="1">
          <mxGeometry width="240" height="50" as="geometry" />
        </mxCell>
        <mxCell id="TJ2M6cgu7bd1UGa0eYtn-40" value="&lt;font face=&quot;Comic Sans MS&quot; color=&quot;#000000&quot;&gt;&lt;span style=&quot;font-size: 14px;&quot;&gt;&lt;b&gt;&quot;Maximo: &quot;, maximo&lt;/b&gt;&lt;/span&gt;&lt;/font&gt;&lt;div&gt;&lt;font face=&quot;Comic Sans MS&quot; color=&quot;#000000&quot;&gt;&lt;span style=&quot;font-size: 14px;&quot;&gt;&lt;b&gt;&quot;Posicion: &quot;, posicion&lt;/b&gt;&lt;/span&gt;&lt;/font&gt;&lt;/div&gt;" style="text;strokeColor=none;align=center;fillColor=none;html=1;verticalAlign=middle;whiteSpace=wrap;rounded=0;fontFamily=Architects Daughter;fontSource=https://fonts.googleapis.com/css?family=Architects+Daughter;" parent="TJ2M6cgu7bd1UGa0eYtn-38" vertex="1">
          <mxGeometry x="16" y="4" width="210" height="50" as="geometry" />
        </mxCell>
        <mxCell id="TJ2M6cgu7bd1UGa0eYtn-50" value="" style="line;strokeWidth=2;direction=south;html=1;hachureGap=4;fontFamily=Architects Daughter;fontSource=https://fonts.googleapis.com/css?family=Architects+Daughter;strokeColor=#000000;" parent="TJ2M6cgu7bd1UGa0eYtn-57" vertex="1">
          <mxGeometry x="258.64" y="960" width="10" height="40" as="geometry" />
        </mxCell>
        <mxCell id="TJ2M6cgu7bd1UGa0eYtn-51" value="" style="line;strokeWidth=2;direction=south;html=1;hachureGap=4;fontFamily=Architects Daughter;fontSource=https://fonts.googleapis.com/css?family=Architects+Daughter;strokeColor=#000000;" parent="TJ2M6cgu7bd1UGa0eYtn-57" vertex="1">
          <mxGeometry x="258.64" y="182" width="10" height="50" as="geometry" />
        </mxCell>
        <mxCell id="TJ2M6cgu7bd1UGa0eYtn-54" value="" style="line;strokeWidth=2;direction=south;html=1;hachureGap=4;fontFamily=Architects Daughter;fontSource=https://fonts.googleapis.com/css?family=Architects+Daughter;strokeColor=#000000;" parent="TJ2M6cgu7bd1UGa0eYtn-57" vertex="1">
          <mxGeometry x="258.64" y="480" width="10" height="40" as="geometry" />
        </mxCell>
        <mxCell id="TJ2M6cgu7bd1UGa0eYtn-55" value="" style="line;strokeWidth=2;direction=south;html=1;hachureGap=4;fontFamily=Architects Daughter;fontSource=https://fonts.googleapis.com/css?family=Architects+Daughter;strokeColor=#000000;" parent="TJ2M6cgu7bd1UGa0eYtn-57" vertex="1">
          <mxGeometry x="258.64" y="569" width="10" height="39" as="geometry" />
        </mxCell>
        <mxCell id="TJ2M6cgu7bd1UGa0eYtn-56" value="" style="line;strokeWidth=2;direction=south;html=1;hachureGap=4;fontFamily=Architects Daughter;fontSource=https://fonts.googleapis.com/css?family=Architects+Daughter;strokeColor=#000000;" parent="TJ2M6cgu7bd1UGa0eYtn-57" vertex="1">
          <mxGeometry x="258.64" y="1041" width="10" height="40" as="geometry" />
        </mxCell>
      </root>
    </mxGraphModel>
  </diagram>
</mxfile>
